<svg id="visual" viewBox="0 0 960 540" width="960" height="540" xmlns="http://www.w3.org/2000/svg" xmlns:xlink="http://www.w3.org/1999/xlink" version="1.1"><rect x="0" y="0" width="960" height="540" fill="#0e0d0d"></rect><g transform="translate(486.07994517438544 277.84591347805264)"><path d="M67.7 -121.5C92.1 -103.2 119.2 -93.9 137.9 -75.1C156.6 -56.3 166.8 -28.2 167.9 0.7C169.1 29.5 161.2 59 142.2 77.3C123.3 95.5 93.3 102.6 67.7 115.2C42.2 127.7 21.1 145.9 -3.4 151.7C-27.8 157.5 -55.7 151.1 -75 134.9C-94.3 118.8 -105.2 92.9 -122.9 68.8C-140.7 44.7 -165.3 22.3 -175.2 -5.7C-185.1 -33.7 -180.2 -67.5 -160.8 -88.7C-141.4 -109.9 -107.5 -118.6 -78.2 -134.1C-49 -149.5 -24.5 -171.8 -1.4 -169.3C21.7 -166.9 43.3 -139.7 67.7 -121.5" fill="none" stroke="#b0919d" stroke-width="6"></path></g></svg>