<svg id="visual" viewBox="0 0 960 540" width="960" height="540" xmlns="http://www.w3.org/2000/svg" xmlns:xlink="http://www.w3.org/1999/xlink" version="1.1"><rect x="0" y="0" width="960" height="540" fill="#001220"></rect><defs><linearGradient id="grad1_0" x1="43.8%" y1="100%" x2="100%" y2="0%"><stop offset="14.444444444444446%" stop-color="#001220" stop-opacity="1"></stop><stop offset="85.55555555555554%" stop-color="#001220" stop-opacity="1"></stop></linearGradient></defs><defs><linearGradient id="grad2_0" x1="0%" y1="100%" x2="56.3%" y2="0%"><stop offset="14.444444444444446%" stop-color="#001220" stop-opacity="1"></stop><stop offset="85.55555555555554%" stop-color="#001220" stop-opacity="1"></stop></linearGradient></defs><g transform="translate(960, 540)"><path d="M-270 0C-263.2 -47.6 -256.3 -95.3 -233.8 -135C-211.3 -174.7 -173.1 -206.6 -131.5 -227.8C-89.9 -248.9 -45 -259.5 0 -270L0 0Z" fill="#fa3c3c"></path></g><g transform="translate(0, 0)"><path d="M270 0C258.6 44.4 247.1 88.8 226 130.5C205 172.2 174.3 211 135 233.8C95.7 256.6 47.9 263.3 0 270L0 0Z" fill="#fa3c3c"></path></g></svg>