<svg id="visual" viewBox="0 0 900 600" width="900" height="600" xmlns="http://www.w3.org/2000/svg" xmlns:xlink="http://www.w3.org/1999/xlink" version="1.1"><rect x="0" y="0" width="900" height="600" fill="#001220"></rect><defs><linearGradient id="grad1_0" x1="33.3%" y1="0%" x2="100%" y2="100%"><stop offset="20%" stop-color="#1d434e" stop-opacity="1"></stop><stop offset="80%" stop-color="#1d434e" stop-opacity="1"></stop></linearGradient></defs><defs><linearGradient id="grad1_1" x1="33.3%" y1="0%" x2="100%" y2="100%"><stop offset="20%" stop-color="#1d434e" stop-opacity="1"></stop><stop offset="80%" stop-color="#183c48" stop-opacity="1"></stop></linearGradient></defs><defs><linearGradient id="grad1_2" x1="33.3%" y1="0%" x2="100%" y2="100%"><stop offset="20%" stop-color="#143441" stop-opacity="1"></stop><stop offset="80%" stop-color="#183c48" stop-opacity="1"></stop></linearGradient></defs><defs><linearGradient id="grad1_3" x1="33.3%" y1="0%" x2="100%" y2="100%"><stop offset="20%" stop-color="#143441" stop-opacity="1"></stop><stop offset="80%" stop-color="#102d3b" stop-opacity="1"></stop></linearGradient></defs><defs><linearGradient id="grad1_4" x1="33.3%" y1="0%" x2="100%" y2="100%"><stop offset="20%" stop-color="#0c2634" stop-opacity="1"></stop><stop offset="80%" stop-color="#102d3b" stop-opacity="1"></stop></linearGradient></defs><defs><linearGradient id="grad1_5" x1="33.3%" y1="0%" x2="100%" y2="100%"><stop offset="20%" stop-color="#0c2634" stop-opacity="1"></stop><stop offset="80%" stop-color="#08202d" stop-opacity="1"></stop></linearGradient></defs><defs><linearGradient id="grad1_6" x1="33.3%" y1="0%" x2="100%" y2="100%"><stop offset="20%" stop-color="#051927" stop-opacity="1"></stop><stop offset="80%" stop-color="#08202d" stop-opacity="1"></stop></linearGradient></defs><defs><linearGradient id="grad1_7" x1="33.3%" y1="0%" x2="100%" y2="100%"><stop offset="20%" stop-color="#051927" stop-opacity="1"></stop><stop offset="80%" stop-color="#001220" stop-opacity="1"></stop></linearGradient></defs><defs><linearGradient id="grad2_0" x1="0%" y1="0%" x2="66.7%" y2="100%"><stop offset="20%" stop-color="#1d434e" stop-opacity="1"></stop><stop offset="80%" stop-color="#1d434e" stop-opacity="1"></stop></linearGradient></defs><defs><linearGradient id="grad2_1" x1="0%" y1="0%" x2="66.7%" y2="100%"><stop offset="20%" stop-color="#183c48" stop-opacity="1"></stop><stop offset="80%" stop-color="#1d434e" stop-opacity="1"></stop></linearGradient></defs><defs><linearGradient id="grad2_2" x1="0%" y1="0%" x2="66.7%" y2="100%"><stop offset="20%" stop-color="#183c48" stop-opacity="1"></stop><stop offset="80%" stop-color="#143441" stop-opacity="1"></stop></linearGradient></defs><defs><linearGradient id="grad2_3" x1="0%" y1="0%" x2="66.7%" y2="100%"><stop offset="20%" stop-color="#102d3b" stop-opacity="1"></stop><stop offset="80%" stop-color="#143441" stop-opacity="1"></stop></linearGradient></defs><defs><linearGradient id="grad2_4" x1="0%" y1="0%" x2="66.7%" y2="100%"><stop offset="20%" stop-color="#102d3b" stop-opacity="1"></stop><stop offset="80%" stop-color="#0c2634" stop-opacity="1"></stop></linearGradient></defs><defs><linearGradient id="grad2_5" x1="0%" y1="0%" x2="66.7%" y2="100%"><stop offset="20%" stop-color="#08202d" stop-opacity="1"></stop><stop offset="80%" stop-color="#0c2634" stop-opacity="1"></stop></linearGradient></defs><defs><linearGradient id="grad2_6" x1="0%" y1="0%" x2="66.7%" y2="100%"><stop offset="20%" stop-color="#08202d" stop-opacity="1"></stop><stop offset="80%" stop-color="#051927" stop-opacity="1"></stop></linearGradient></defs><defs><linearGradient id="grad2_7" x1="0%" y1="0%" x2="66.7%" y2="100%"><stop offset="20%" stop-color="#001220" stop-opacity="1"></stop><stop offset="80%" stop-color="#051927" stop-opacity="1"></stop></linearGradient></defs><g transform="translate(900, 0)"><path d="M0 243.4C-43.3 237.4 -86.6 231.5 -121.7 210.8C-156.8 190.1 -183.7 154.6 -202.6 117C-221.6 79.4 -232.5 39.7 -243.4 0L0 0Z" fill="#031623"></path><path d="M0 213C-37.9 207.7 -75.8 202.5 -106.5 184.4C-137.2 166.3 -160.8 135.3 -177.3 102.4C-193.9 69.5 -203.4 34.7 -213 0L0 0Z" fill="#071c2a"></path><path d="M0 182.5C-32.5 178.1 -64.9 173.6 -91.3 158.1C-117.6 142.5 -137.8 115.9 -152 87.8C-166.2 59.6 -174.4 29.8 -182.5 0L0 0Z" fill="#0a2331"></path><path d="M0 152.1C-27.1 148.4 -54.1 144.7 -76.1 131.7C-98 118.8 -114.8 96.6 -126.7 73.1C-138.5 49.6 -145.3 24.8 -152.1 0L0 0Z" fill="#0e2a37"></path><path d="M0 121.7C-21.6 118.7 -43.3 115.7 -60.8 105.4C-78.4 95 -91.9 77.3 -101.3 58.5C-110.8 39.7 -116.2 19.9 -121.7 0L0 0Z" fill="#12313e"></path><path d="M0 91.3C-16.2 89 -32.5 86.8 -45.6 79C-58.8 71.3 -68.9 58 -76 43.9C-83.1 29.8 -87.2 14.9 -91.3 0L0 0Z" fill="#163844"></path><path d="M0 60.8C-10.8 59.4 -21.6 57.9 -30.4 52.7C-39.2 47.5 -45.9 38.6 -50.7 29.3C-55.4 19.9 -58.1 9.9 -60.8 0L0 0Z" fill="#1b3f4b"></path><path d="M0 30.4C-5.4 29.7 -10.8 28.9 -15.2 26.3C-19.6 23.8 -23 19.3 -25.3 14.6C-27.7 9.9 -29.1 5 -30.4 0L0 0Z" fill="#1d434e"></path></g><g transform="translate(0, 600)"><path d="M0 -243.4C39.7 -232.5 79.4 -221.6 117 -202.6C154.6 -183.7 190.1 -156.8 210.8 -121.7C231.5 -86.6 237.4 -43.3 243.4 0L0 0Z" fill="#031623"></path><path d="M0 -213C34.7 -203.4 69.5 -193.9 102.4 -177.3C135.3 -160.8 166.3 -137.2 184.4 -106.5C202.5 -75.8 207.7 -37.9 213 0L0 0Z" fill="#071c2a"></path><path d="M0 -182.5C29.8 -174.4 59.6 -166.2 87.7 -152C115.9 -137.8 142.5 -117.6 158.1 -91.3C173.6 -64.9 178.1 -32.5 182.5 0L0 0Z" fill="#0a2331"></path><path d="M0 -152.1C24.8 -145.3 49.6 -138.5 73.1 -126.7C96.6 -114.8 118.8 -98 131.7 -76.1C144.7 -54.1 148.4 -27.1 152.1 0L0 0Z" fill="#0e2a37"></path><path d="M0 -121.7C19.9 -116.2 39.7 -110.8 58.5 -101.3C77.3 -91.9 95 -78.4 105.4 -60.8C115.7 -43.3 118.7 -21.6 121.7 0L0 0Z" fill="#12313e"></path><path d="M0 -91.3C14.9 -87.2 29.8 -83.1 43.9 -76C58 -68.9 71.3 -58.8 79 -45.6C86.8 -32.5 89 -16.2 91.3 0L0 0Z" fill="#163844"></path><path d="M0 -60.8C9.9 -58.1 19.9 -55.4 29.2 -50.7C38.6 -45.9 47.5 -39.2 52.7 -30.4C57.9 -21.6 59.4 -10.8 60.8 0L0 0Z" fill="#1b3f4b"></path><path d="M0 -30.4C5 -29.1 9.9 -27.7 14.6 -25.3C19.3 -23 23.8 -19.6 26.3 -15.2C28.9 -10.8 29.7 -5.4 30.4 0L0 0Z" fill="#1d434e"></path></g></svg>